<?xml version="1.0" encoding="UTF-8" standalone="no"?>
<!-- Generator: Adobe Illustrator 16.0.3, SVG Export Plug-In . SVG Version: 6.00 Build 0)  -->

<svg
   version="1.1"
   id="Capa_1"
   x="0px"
   y="0px"
   width="3272.3823"
   height="720"
   viewBox="0 0 3272.3822 719.99999"
   enable-background="new 0 0 595.28 841.89"
   xml:space="preserve"
   sodipodi:docname="Logo de Banamex.svg"
   inkscape:version="1.1 (c68e22c387, 2021-05-23)"
   xmlns:inkscape="http://www.inkscape.org/namespaces/inkscape"
   xmlns:sodipodi="http://sodipodi.sourceforge.net/DTD/sodipodi-0.dtd"
   xmlns="http://www.w3.org/2000/svg"
   xmlns:svg="http://www.w3.org/2000/svg"><defs
   id="defs49" /><sodipodi:namedview
   id="namedview47"
   pagecolor="#ffffff"
   bordercolor="#666666"
   borderopacity="1.0"
   inkscape:pageshadow="2"
   inkscape:pageopacity="0.0"
   inkscape:pagecheckerboard="0"
   showgrid="false"
   fit-margin-top="0"
   fit-margin-left="0"
   fit-margin-right="0"
   fit-margin-bottom="0"
   inkscape:zoom="0.17470003"
   inkscape:cx="1496.8515"
   inkscape:cy="134.51629"
   inkscape:window-width="1920"
   inkscape:window-height="1017"
   inkscape:window-x="1912"
   inkscape:window-y="-8"
   inkscape:window-maximized="1"
   inkscape:current-layer="Capa_1" />
<g
   id="g44"
   transform="matrix(1.7234837,0,0,1.7234837,1095.1589,-366.40465)">
	<g
   id="g42">
		
		<path
   id="path4"
   d="m -463.56836,212.60352 c -0.86931,-0.0163 -1.75097,-0.008 -2.64453,0.0234 -17.35,0.61 -33.31552,5.90547 -48.72852,13.23047 -21.972,10.444 -42.34287,23.28053 -58.04687,42.26953 -13.985,16.912 -14.28991,32.34949 -1.37891,49.89649 7.844,10.66 16.0081,21.08426 23.9961,31.57226 -0.976,1.225 -2.22808,1.1435 -3.33008,1.4375 -15.734,4.193 -31.46952,8.36658 -46.85352,13.76758 -19.552,6.866 -31.25728,19.97694 -33.73828,40.96094 -1.913,16.172 -1.39158,32.25342 1.35742,48.23242 3.63,21.107 9.46238,41.54264 21.10938,59.80664 6.784,10.638 15.7324,18.48074 29.0664,19.67774 7.354,0.66 14.12891,-1.65629 20.87891,-3.98829 11.573,-3.998 23.09634,-8.14498 33.52734,-11.83398 0,12.018 0.21466,24.14667 -0.0684,36.26367 -0.22899,9.852 -0.16778,19.65461 1.69922,29.34961 3.083,16.019 14.27968,24.96177 28.01368,31.50977 25.034,11.934 51.69904,15.89468 79.12304,15.55468 11.65,-0.144 23.236,-1.28481 34.375,-5.25781 17.228,-6.144 25.44919,-17.56556 25.36719,-35.72656 -0.046,-10.16 -0.15856,-20.31956 -0.35156,-30.47656 -0.074,-3.873 -0.45628,-7.73853 -0.73828,-12.26953 3.159,1.248 5.441,2.18668 7.75,3.05468 13.685,5.149 27.37579,10.24767 41.34179,14.63868 20.487,6.44 37.81471,2.37506 52.59571,-13.58594 11.905,-12.856 21.30887,-27.25989 28.79687,-42.96289 8.861,-18.581 15.66199,-37.82278 16.33399,-58.67578 0.674,-20.899 -8.00271,-33.10374 -27.97071,-39.42774 -11.398,-3.611 -22.88511,-6.95676 -34.41211,-10.13476 -3.755,-1.035 -4.61642,-1.63305 -1.73242,-5.12305 11.021,-13.336 22.08156,-26.65795 31.47656,-41.25195 9.768,-15.174 10.54497,-30.54402 2.41797,-46.79102 -11.198,-22.387 -27.62456,-40.22184 -46.97656,-55.58984 -12.413,-9.858 -25.46166,-18.73899 -40.97266,-23.20899 -18.021,-5.193 -31.64651,-0.46584 -42.22851,14.78516 -6.924,9.979 -13.8895,19.93603 -20.5625,30.08203 -2.298,3.495 -3.7723,4.04756 -5.6543,-0.0234 -0.208,-0.451 -0.47014,-0.88087 -0.74414,-1.29687 -9.618,-14.583 -18.68478,-29.55741 -30.17578,-42.81641 -8.53688,-9.85125 -18.87824,-15.42785 -31.91797,-15.67187 z m 40.01563,69.2246 c 5.23067,-0.0527 10.49853,0.18461 15.80078,0.69336 5.71,0.548 5.69722,0.60382 2.82422,5.38282 -7.467,12.425 -14.45407,25.07497 -18.53907,39.91797 -6.898,-12.444 -17.71851,-13.25718 -29.35351,-11.45118 -8.246,1.278 -16.0311,4.28797 -23.8711,7.04297 -4.56,1.603 -9.18848,3.03646 -14.02148,3.43946 -6.211,0.519 -10.5795,-1.98835 -12.5625,-6.90235 -1.764,-4.371 -0.49817,-8.83237 4.29883,-12.73437 8.847,-7.196 18.83759,-12.49482 29.43359,-16.63282 14.9415,-5.835 30.29822,-8.59775 45.99024,-8.75586 z m 74.42382,27.2461 c 2.22313,-0.079 4.63808,0.65714 7.26758,2.30664 9.68,6.072 17.74881,14.04311 25.00781,22.78711 14.109,16.999 22.63099,36.67361 27.45899,58.09961 0.793,3.517 -0.0423,3.83678 -3.36328,3.0918 -14.462,-3.246 -28.96336,-6.41101 -45.06836,-5.5 9.568,-10.68402 7.25187,-21.15488 1.79687,-31.67188 -3.463,-6.677 -8.06676,-12.5962 -12.63476,-18.5332 -3.556,-4.623 -7.07017,-9.29794 -9.20117,-14.79492 -2.148,-5.54001 -1.22391,-9.88408 2.62109,-13.20508 1.861,-1.6075 3.89211,-2.50108 6.11523,-2.58008 z m -73.74218,33.04297 c 16.136,27.49 41.3174,44.03473 71.6914,52.55273 -21.396,23.948 -29.25445,53.07469 -27.81445,84.42969 -29.336,-12.726 -59.48959,-11.57727 -89.05859,-0.44727 3.019,-31.969 -7.38972,-60.26249 -27.26172,-84.85546 31.341,-6.315 54.64336,-25.42269 72.44336,-51.67969 z m -121.66211,14.20508 c 10.905,11.883 21.19753,24.24514 35.39453,33.61914 -15.346,3.785 -18.72116,15.2039 -20.03516,28.1289 -1.08,10.622 0.56845,21.29939 -0.81055,31.90039 -0.21298,1.64 -0.49651,3.2941 -0.97851,4.8711 -1.646,5.392 -5.40786,8.68551 -10.25586,8.72851 -5.118,0.046 -8.40911,-2.89517 -10.28711,-7.36719 -3.24,-7.71499 -4.90994,-15.86832 -6.08594,-24.11132 -3.686,-25.826 1.21997,-50.30428 11.79297,-73.86328 0.268,-0.597 0.72863,-1.10725 1.26563,-1.90625 z m 237.66211,91.56835 c 1.79047,-0.0284 3.55807,0.46 5.29882,1.46876 4.381,2.538 6.03794,7.07537 4.46094,13.60937 -1.763,7.303 -5.01504,14.03283 -8.49805,20.67383 -11.848,22.587 -29.40196,39.57283 -51.04296,52.67383 -3.481,2.107 -4.97279,2.37386 -5.30078,-2.49414 -0.974,-14.422 -2.92385,-28.70943 -8.21485,-43.48243 12.54,5.44 21.53991,0.60055 29.62891,-7.31445 5.856,-5.73 10.40625,-12.50498 15.03125,-19.20898 2.836,-4.111 5.821,-8.08972 9.5,-11.51172 3.10312,-2.88625 6.15259,-4.36668 9.13672,-4.41407 z m -169.2168,42.77735 c -1.346,14.396 7.09245,21.40678 18.06445,26.67578 7.841,3.765 16.24594,5.8633 24.46094,8.5293 4.917,1.597 9.7735,3.29756 13.8125,6.72656 3.353,2.848 4.69644,6.33469 3.77344,10.67969 -0.951,4.475 -3.98164,6.88084 -8.18164,7.71484 -8.822,1.752 -17.60353,0.33403 -26.26953,-1.16797 -26.522,-4.598 -49.02618,-17.07206 -69.07618,-35.78906 15.214,-6.637 30.02102,-12.90914 43.41602,-23.36914 z"
   style="fill:#e1091d;fill-opacity:1" />
		<path
   id="path6"
   d="m -28.28125,301.02539 c -1.808591,-0.009 -3.618266,-0.004 -5.427734,0.0137 -4.82525,0.0458 -9.653719,0.17928 -14.480469,0.36328 -17.285,0.658 -34.552983,1.62538 -51.708985,4.10938 -3.365002,0.486 -4.213982,1.5622 -4.208982,4.9082 0.111,71.135 0.10967,142.27125 0.0137,213.40625 -0.004,3.304 0.75056,4.76824 4.226562,4.99024 9.124,0.581 18.21575,1.69425 27.34375,2.15625 28.631001,1.448 57.236438,1.66521 85.523438,-4.05078 19.669,-3.974 37.430797,-11.49622 50.341797,-27.82422 19.99,-25.284 15.763781,-61.74547 -9.449219,-80.85547 -7.242,-5.489 -15.499641,-8.89477 -24.80664,-11.75977 5.716999,-2.24 10.607093,-4.56778 15.246093,-7.42578 27.857,-17.172 31.845563,-54.015 7.976563,-76.375 -11.949,-11.194 -26.996953,-16.08552 -42.7519534,-18.72852 -12.5442187,-2.10459 -25.1777516,-2.8632 -37.8378906,-2.92773 z m 2.117188,38.84375 c 7.27475,0.0499 14.516453,0.81364 21.6894526,2.99414 11.599,3.524 17.3837954,10.5305 17.9667974,21.1875 0.530999,9.71 -5.2484067,18.08277 -15.6914068,22.63477 -7.9020002,3.445 -16.3246402,4.54798 -24.8066402,4.95898 -6.812,0.33 -13.653516,-0.0281 -20.478516,0.13086 -2.639,0.062 -3.448531,-0.81183 -3.394531,-3.42383 0.152,-7.325 0.0555,-14.65542 0.0625,-21.98242 0.007,-7.16 0.09208,-14.32247 -0.04492,-21.48047 -0.042,-2.207 0.481453,-3.51251 2.814453,-3.72851 7.301,-0.677 14.608062,-1.34089 21.882813,-1.29102 z m -10.976563,89.82813 c 11.219016,-0.0999 22.427375,-0.0543 33.359375,3.35742 11.609,3.623 20.747625,10.00775 22.640625,23.09375 2.33,16.115 -7.453984,29.06239 -25.0839844,33.65039 -8.5969996,2.239 -17.3682186,2.72303 -26.1992186,2.08203 -4.818,0 -9.637172,-0.0797 -14.451172,0.0273 -2.908,0.064 -4.027906,-0.89997 -4.003906,-4.04297 0.141,-18.309 0.07206,-36.61773 0.03906,-54.92773 -0.004,-1.802 -0.02967,-3.24694 2.486328,-3.21094 3.73225,0.0537 7.473219,0.004 11.212891,-0.0293 z"
   style="fill:#06315b;fill-opacity:1" />
		<path
   fill-rule="evenodd"
   clip-rule="evenodd"
   fill="#06315B"
   d="m 699.54,364.126 c 26.661,-20.946 66.322,-20.324 86.981,7.42 10.623,-9.908 22.793,-17.157 37.08,-20.155 19.175,-4.023 37.807,-2.726 54.785,7.997 15.594,9.849 22.605,25.135 25.593,42.686 1.094,6.426 1.204,12.913 1.201,19.412 -0.017,34.322 -0.063,68.645 0.081,102.967 0.016,3.625 -0.704,4.812 -4.574,4.725 -12.323,-0.276 -24.659,-0.233 -36.984,-0.013 -3.752,0.066 -4.997,-0.739 -4.971,-4.825 0.195,-30.822 0.122,-61.646 0.075,-92.471 -0.009,-5.656 -0.463,-11.287 -1.694,-16.84 -3.266,-14.726 -11.411,-21.583 -26.036,-21.841 -13.302,-0.234 -23.352,7.489 -26.865,20.804 -1.492,5.656 -2.05,11.46 -2.05,17.311 0.003,30.989 -0.072,61.979 0.107,92.968 0.023,3.945 -1.011,4.984 -4.902,4.904 -12.324,-0.254 -24.66,-0.26 -36.984,-0.01 -3.752,0.076 -4.657,-0.926 -4.638,-4.662 0.161,-31.322 0.085,-62.646 0.084,-93.969 0,-6.015 -0.577,-11.986 -2.162,-17.779 -3.533,-12.917 -12.927,-19.927 -26.007,-19.664 -13.943,0.279 -23.291,7.71 -26.537,21.146 -1.178,4.875 -1.582,9.838 -1.578,14.852 0.019,31.49 -0.104,62.98 0.132,94.469 0.035,4.748 -1.425,5.728 -5.827,5.625 -12.322,-0.286 -24.657,-0.19 -36.985,-0.032 -2.968,0.038 -3.964,-0.61 -3.958,-3.808 0.104,-56.148 0.114,-112.297 -0.01,-168.444 -0.008,-3.619 1.427,-3.943 4.367,-3.913 12.495,0.129 24.997,0.263 37.485,-0.051 4.149,-0.104 5.29,1.262 4.828,5.039 -0.219,1.785 -0.037,3.62 -0.037,6.152 z"
   id="path8"
   style="fill:#06315b;fill-opacity:1" />
		<path
   id="path10"
   d="m 540.92773,349.00391 c -20.44773,0.15657 -40.49034,6.21282 -60.03125,16.99414 -2.297,1.266 -1.33329,2.41237 -0.52929,3.85937 4.844,8.711 9.80601,17.36036 14.41601,26.19336 1.623,3.11 3.08175,3.29189 5.96875,1.71289 11.86,-6.487 24.64377,-9.91848 38.13477,-10.27148 20.418,-0.534 34.4582,7.09975 30.7832,30.46875 -0.801,-0.17 -1.62804,-0.24139 -2.37304,-0.52539 -19.351,-7.371 -39.05279,-7.50538 -58.80079,-2.23438 -25.596,6.831 -42.20921,26.37353 -43.44921,50.39453 -1.527,29.607 12.05317,52.5953 37.70117,62.2793 23.692,8.944 46.26453,6.84019 67.39453,-9.63281 0,2.268 0.20394,3.79509 -0.0391,5.24609 -0.769,4.622 1.10871,5.81822 5.63671,5.69922 12.154,-0.319 24.32543,-0.25853 36.48243,-0.0195 3.719,0.072 4.72593,-0.89664 4.71093,-4.68164 -0.146,-38.317 0.21964,-76.64013 -0.19336,-114.95313 -0.259,-23.995 -10.53273,-42.99245 -33.30273,-52.18945 -14.339,-5.79231 -28.51921,-8.44698 -42.50977,-8.33984 z m -1.81835,99.08593 c 9.7746,-0.17245 19.24979,2.14219 28.49804,6.11719 2.01,0.863 2.6736,2.05934 2.5586,4.15235 -0.155,2.818 -0.0392,5.65151 -0.0352,8.47851 2.055,15.62 -6.95584,19.26453 -16.46484,23.51953 -8.236,3.686 -17.06985,4.07797 -25.83985,1.66797 -10.85,-2.981 -16.64744,-11.16791 -16.27344,-22.62891 0.353,-10.835 6.52169,-18.12739 17.67969,-20.27539 3.327,-0.64075 6.61875,-0.97376 9.87696,-1.03125 z"
   style="fill:#06315b;fill-opacity:1" />
		<path
   id="path12"
   d="m 176.65234,349.07422 c -21.20139,-0.40623 -41.94875,5.50203 -62.14062,16.66016 -2.667,1.47299 -1.90013,2.67221 -0.82813,4.57421 4.81,8.535 9.65279,17.05614 14.17579,25.74414 1.61099,3.095 2.96459,3.28694 5.93359,1.71094 14.245,-7.562 29.424,-11.24114 45.625,-9.99414 18.12,1.394 26.04381,11.63869 23.25781,30.17969 -0.64,-0.119 -1.31134,-0.1421 -1.90234,-0.3711 -19.154,-7.39899 -38.7485,-7.85773 -58.3125,-2.55273 -21.846,5.923 -38.23907,18.62817 -42.914065,41.82617 -4.778,23.706 0.502435,45.08958 19.648435,61.39258 20.014,17.044 57.67041,21.93961 83.94141,-0.15039 0,2.459 0.23008,4.11941 -0.0449,5.69141 -0.796,4.566 1.16912,5.50243 5.45312,5.39843 12.324,-0.296 24.66224,-0.23548 36.99024,-0.0215 3.536,0.061 4.40748,-0.99599 4.39648,-4.45899 -0.121,-38.65999 0.29102,-77.32646 -0.20898,-115.98046 -0.315,-24.299 -11.33346,-42.96814 -34.43946,-51.86914 -13.02675,-5.01863 -25.91002,-7.53556 -38.63086,-7.7793 z m -3.73437,99.08594 c 8.54826,0.0326 16.83589,1.92064 25.05664,4.80664 4.049,1.422 5.95551,3.57575 5.22851,7.96875 -0.321,1.942 -0.0527,3.98207 -0.0527,6.70507 -0.867,3.842 1.64649,8.81318 -2.22851,13.07618 -6.08501,6.693 -13.67838,10.40487 -22.35938,12.04687 -4.75,0.898 -9.5923,0.82361 -14.4043,0.0996 -12.141,-1.827 -19.52632,-10.2933 -19.61132,-22.5293 -0.083,-11.917 7.15551,-19.68764 19.72851,-21.55664 2.9145,-0.43325 5.79316,-0.62804 8.64258,-0.61718 z"
   style="fill:#06315b;fill-opacity:1" />
		<path
   fill-rule="evenodd"
   clip-rule="evenodd"
   fill="#06315B"
   d="m 332.546,364.159 c 24.863,-20.856 62.492,-16.796 80.436,-4.984 16.221,10.678 22.767,26.651 25.032,45.033 1.473,11.944 0.771,23.946 0.81,35.924 0.09,27.983 -0.083,55.969 0.14,83.952 0.034,4.331 -1.247,5.153 -5.271,5.066 -12.32,-0.267 -24.653,-0.241 -36.975,0.02 -3.786,0.08 -4.682,-0.995 -4.663,-4.713 0.154,-32.148 0.089,-64.297 0.089,-96.445 0,-8.275 -1.119,-16.328 -5.874,-23.342 -6.783,-10.006 -16.838,-12.248 -28.049,-11.017 -11.293,1.24 -18.959,7.444 -23.086,17.942 -2.026,5.157 -2.596,10.625 -2.595,16.144 0.004,31.981 -0.067,63.964 0.122,95.945 0.025,4.295 -0.909,5.651 -5.438,5.521 -12.483,-0.357 -24.984,-0.229 -37.475,-0.049 -3.073,0.045 -3.854,-0.75 -3.848,-3.851 0.103,-56.135 0.112,-112.271 -0.012,-168.405 -0.008,-3.611 1.414,-3.947 4.359,-3.918 12.492,0.125 24.99,0.237 37.477,-0.054 4.081,-0.095 5.339,1.213 4.859,5.034 -0.225,1.789 -0.038,3.628 -0.038,6.197 z"
   id="path14"
   style="fill:#06315b;fill-opacity:1" />
		<path
   id="path16"
   d="m 1011.4609,349.23242 c -25.04061,-0.41759 -51.56762,11.52125 -67.22262,39.70313 -12.539,22.572 -14.95292,46.90422 -11.29492,72.07422 5.494,37.802 29.59014,68.00509 72.86914,71.49609 26.533,2.14 49.9498,-5.38439 68.9238,-24.77539 1.834,-1.874 3.4102,-3.3708 0.4532,-5.9668 -6.621,-5.815 -12.8822,-12.03586 -19.3692,-18.00586 -5.68,-5.227 -5.5945,-4.9969 -11.9375,-0.2539 -12.81,9.581 -27.0567,12.91312 -42.3027,7.32812 -14.02502,-5.139 -20.53037,-16.4779 -22.90237,-30.75391 -0.598,-3.60799 0.44372,-4.08459 3.63672,-4.05859 16.322,0.136 32.64675,0.0625 48.96875,0.0625 16.323,0.001 32.6478,-0.0705 48.9688,0.0645 3.249,0.027 4.7009,-0.64306 4.7929,-4.28906 0.307,-12.173 0.3004,-24.30869 -2.0996,-36.30469 -4.231,-21.144 -12.7995,-39.89745 -30.6855,-53.06445 -11.2845,-8.30775 -25.7745,-13.00531 -40.7989,-13.25586 z m -2.0644,40.61133 c 3.5568,0.0555 7.23,0.73377 10.8984,2.11133 11.938,4.483 16.9916,16.46969 18.4766,26.92969 0.434,3.052 -1.8841,2.112 -3.2461,2.125 -8.81,0.079 -17.6216,0.0391 -26.4336,0.0391 v -0.0156 c -8.979,0 -17.95755,-0.0478 -26.93555,0.0332 -2.191,0.021 -3.25291,-0.24913 -3.00391,-2.95313 1.56894,-17.04462 14.83124,-28.51015 30.24416,-28.26953 z"
   style="fill:#06315b;fill-opacity:1" />
		<path
   fill-rule="evenodd"
   clip-rule="evenodd"
   fill="#06315b"
   d="m 1095.343,353.017 c 17.601,0 35.027,0.043 52.454,-0.046 2.691,-0.014 3.245,1.976 4.188,3.609 7.38,12.782 15.278,25.262 22.128,38.791 7.581,-13.065 14.99,-25.58 22.099,-38.264 1.8,-3.212 3.874,-4.205 7.477,-4.16 16.44,0.204 32.886,0.089 50.307,0.089 -4.737,7.305 -9.008,13.955 -13.345,20.563 -12.406,18.898 -24.797,37.808 -37.311,56.635 -1.771,2.662 -1.969,4.502 -0.055,7.391 19.19,28.959 38.172,58.057 57.209,87.117 0.795,1.214 1.564,2.444 2.775,4.341 -8.515,0 -16.269,0 -24.022,0 -4.832,0 -9.665,0.027 -14.497,-0.007 -5.492,-0.04 -12.02,1.679 -16.189,-0.705 -4.336,-2.477 -6.501,-8.875 -9.426,-13.674 -8.471,-13.896 -17.123,-27.688 -24.712,-42.586 -9.725,18.141 -20.627,35.203 -30.96,52.604 -1.948,3.28 -3.949,4.506 -7.789,4.45 -16.455,-0.238 -32.917,-0.102 -50.287,-0.102 2.79,-4.338 5.14,-8.055 7.552,-11.731 17.516,-26.688 35.013,-53.387 52.62,-80.014 1.628,-2.463 1.608,-4.122 -0.057,-6.63 -15.808,-23.82 -31.467,-47.741 -47.101,-71.677 -1.135,-1.739 -2.721,-3.329 -3.058,-5.994 z"
   id="path18" />
		
		
		
		
		
		
		
		
		
		
		
	</g>
</g>
</svg>
